<svg width="500" height="500" viewBox="0 0 500 500" fill="none" xmlns="http://www.w3.org/2000/svg">
    <g clip-path="url(#clip0)">

        <path d="M44.3279 526.147C39.46 526.147 35.5148 522.386 35.5148 517.745V396.098C35.5148 391.457 39.46 387.696 44.3279 387.696C49.1958 387.696 53.141 391.457 53.141 396.098V517.743C53.1398 522.386 49.1946 526.147 44.3279 526.147V526.147Z" fill="#0A5B36"/>
        <path d="M-53.1573 450.044C-9.58073 450.044 25.7451 416.364 25.7451 374.818C25.7451 333.272 -9.58073 299.592 -53.1573 299.592C-96.7339 299.592 -132.06 333.272 -132.06 374.818C-132.06 416.364 -96.7339 450.044 -53.1573 450.044Z" fill="#0F7A4F"/>
        <path d="M25.7462 374.821C25.7462 416.363 -9.58483 450.048 -53.1562 450.048C-71.7484 450.048 -88.8394 443.915 -102.327 433.652C-95.2485 435.644 -87.7595 436.708 -80.0016 436.708C-36.4303 436.708 -1.11098 403.023 -1.11098 361.481C-1.11098 337.666 -12.7201 316.426 -30.8311 302.65C1.87171 311.827 25.7462 340.666 25.7462 374.821V374.821Z" fill="#0C6842"/>
        <path d="M68.5499 270.317C112.127 270.317 147.452 236.637 147.452 195.091C147.452 153.544 112.127 119.864 68.5499 119.864C24.9734 119.864 -10.3524 153.544 -10.3524 195.091C-10.3524 236.637 24.9734 270.317 68.5499 270.317Z" fill="#158F5E"/>
        <path d="M147.457 195.093C147.457 236.634 112.126 270.319 68.5547 270.319C62.2512 270.319 56.1238 269.614 50.2559 268.282C85 260.404 110.847 230.625 110.847 195.093C110.847 159.55 85 129.771 50.2559 121.903C56.125 120.572 62.2524 119.867 68.5547 119.867C112.126 119.867 147.457 153.54 147.457 195.093V195.093Z" fill="#0F7A4F"/>
        <path d="M171.908 372.78C215.484 372.78 250.81 339.1 250.81 297.554C250.81 256.007 215.484 222.327 171.908 222.327C128.331 222.327 93.0055 256.007 93.0055 297.554C93.0055 339.1 128.331 372.78 171.908 372.78Z" fill="#158F5E"/>
        <path d="M250.809 297.558C250.809 339.099 215.478 372.784 171.907 372.784C164.735 372.784 157.786 371.867 151.178 370.154C189.843 365.297 219.68 333.761 219.68 295.577C219.68 260.874 195.031 231.654 161.508 222.981C164.912 222.555 168.386 222.332 171.908 222.332C215.478 222.332 250.809 256.005 250.809 297.558Z" fill="#0F7A4F"/>
        <path d="M81.1862 522.893C76.3183 522.893 72.3731 519.131 72.3731 514.49V402.297C72.3731 397.656 76.3183 393.895 81.1862 393.895C86.0541 393.895 89.9993 397.656 89.9993 402.297V514.49C89.9993 519.131 86.0541 522.893 81.1862 522.893V522.893Z" fill="#0F7A4F"/>
        <path d="M121.262 431.198C87.2455 431.198 59.6699 404.907 59.6699 372.476V244.044C59.6699 211.613 87.2455 185.322 121.262 185.322C155.278 185.322 182.854 211.613 182.854 244.044V372.474C182.854 404.907 155.278 431.198 121.262 431.198V431.198Z" fill="#D2F0A2"/>
        <path d="M182.858 244.042V372.47C182.858 404.902 155.275 431.2 121.258 431.2C116.035 431.2 110.964 430.585 106.128 429.41C132.831 422.986 152.598 399.921 152.598 372.47V244.042C152.598 227.826 145.708 213.144 134.557 202.523C126.833 195.159 117.068 189.742 106.128 187.112C110.964 185.937 116.035 185.322 121.258 185.322C138.267 185.322 153.667 191.891 164.818 202.523C175.968 213.144 182.858 227.827 182.858 244.042Z" fill="#BCEA73"/>
        <path d="M147.011 344.752C143.568 341.472 137.989 341.472 134.547 344.752L130.075 349.016V330.661C130.075 330.66 130.075 330.658 130.075 330.656V297.808C130.075 293.167 126.13 289.405 121.262 289.405C116.394 289.405 112.449 293.167 112.449 297.808V310.372L103.562 301.898C100.12 298.617 94.5397 298.616 91.0992 301.897C87.6563 305.178 87.6563 310.499 91.098 313.779L112.45 334.137V369.295V369.306V509.934C112.45 514.575 116.395 518.337 121.263 518.337C126.131 518.337 130.076 514.575 130.076 509.934V372.782L147.012 356.635C150.451 353.354 150.451 348.035 147.011 344.752V344.752Z" fill="#A3E440"/>
        <path d="M68.5499 322.309C68.5499 425.636 40.7443 423.793 6.44383 423.793C-27.8566 423.793 -55.6622 425.636 -55.6622 322.309C-55.6622 218.982 -20.6153 102.405 6.44383 102.405C33.5029 102.405 68.5499 218.982 68.5499 322.309Z" fill="#A3E440"/>
        <path d="M68.5499 322.309C68.5499 425.636 40.7443 423.793 6.44383 423.793C-27.8566 423.793 -55.6622 425.636 -55.6622 322.309C-55.6622 218.982 -20.6153 102.405 6.44383 102.405C33.5029 102.405 68.5499 218.982 68.5499 322.309Z" fill="#A3E440"/>
        <path d="M68.544 322.307C68.544 425.639 40.7454 423.792 6.44381 423.792C0.857559 423.792 -4.56786 423.843 -9.72449 423.47C16.7277 421.596 36.2074 408.774 36.2074 322.307C36.2074 238.829 13.3225 146.715 -9.72449 114.396C-4.24506 106.708 1.24727 102.408 6.44381 102.408C33.5017 102.409 68.544 218.988 68.544 322.307Z" fill="#99D53B"/>
        <path d="M43.8467 333.196C40.4039 329.916 34.8246 329.916 31.383 333.196L15.2569 348.571V316.402C15.2569 316.399 15.2569 316.394 15.2569 316.391V278.546C15.2569 273.905 11.3117 270.144 6.44382 270.144C1.57595 270.144 -2.36928 273.905 -2.36928 278.546V296.111L-14.9034 284.161C-18.3463 280.881 -23.9255 280.881 -27.3671 284.161C-30.8088 287.443 -30.8088 292.763 -27.3671 296.044L-2.36928 319.877V368.851V368.862V514.49C-2.36928 519.131 1.57595 522.893 6.44382 522.893C11.3117 522.893 15.2569 519.131 15.2569 514.49V372.337L43.8467 345.079C47.2884 341.798 47.2884 336.478 43.8467 333.196Z" fill="#88BA31"/>
        <path d="M246.663 429.35C246.663 471.738 226.623 470.983 201.903 470.983C177.182 470.983 157.142 471.739 157.142 429.35C157.142 386.96 182.401 339.137 201.903 339.137C221.405 339.137 246.663 386.961 246.663 429.35Z" fill="#A3E440"/>
        <path d="M246.663 429.35C246.663 471.738 226.623 470.983 201.903 470.983C177.182 470.983 157.142 471.739 157.142 429.35C157.142 386.96 182.401 339.137 201.903 339.137C221.405 339.137 246.663 386.961 246.663 429.35Z" fill="#A3E440"/>
        <path d="M246.665 429.355C246.665 471.736 226.618 470.986 201.897 470.986C196.638 470.986 191.591 471.019 186.907 470.661C204.256 469.352 216.662 462.715 216.662 429.355C216.662 397.404 202.318 362.376 186.907 347.044C191.931 342.03 197.084 339.132 201.897 339.132C221.406 339.133 246.665 386.963 246.665 429.355Z" fill="#99D53B"/>
        <path d="M225.191 421.676C221.751 418.396 216.171 418.395 212.729 421.677L210.716 423.597V399.617C210.716 394.976 206.77 391.214 201.903 391.214C197.035 391.214 193.09 394.976 193.09 399.617V443.881V443.887V514.492C193.09 519.133 197.035 522.895 201.903 522.895C206.77 522.895 210.716 519.133 210.716 514.492V447.364L225.193 433.561C228.633 430.278 228.633 424.958 225.191 421.676V421.676Z" fill="#88BA31"/>
        <g clip-path="url(#clip1)">
            <path d="M167.863 509L146.972 471.2C131.27 442.789 140.468 409.483 167.041 390.204C183.581 378.202 199.363 365.421 213.845 351.531L217.527 348L226.087 357.897C236.65 370.108 244.711 383.093 249.473 396.251L167.863 509Z" fill="#00AA95"/>
            <path d="M295.463 395.148L292.68 382.978C278.927 411.344 243.652 426.416 223.433 445.989C188.073 480.218 167.863 509 167.863 509H188.799C281.851 509 308.929 454.046 295.463 395.148V395.148Z" fill="#00CC76"/>
            <path d="M292.68 382.978L287.608 384.754C275.112 389.131 262.374 392.922 249.473 396.251V396.251C241.778 398.236 234.025 400.057 226.23 401.739C192.716 408.973 167.863 435.453 167.863 467.012V509C167.863 509 254.876 460.95 292.68 382.978V382.978Z" fill="#A5E887"/>
        </g>
        <g clip-path="url(#clip2)">
            <path d="M117.205 525.739L81.2944 501.745C54.3027 483.712 47.1872 449.9 61.9452 420.574C71.1319 402.319 79.2856 383.72 85.7766 364.732L87.4265 359.905L99.5748 364.769C114.565 370.769 127.686 378.605 137.956 388.109L117.205 525.739Z" fill="#00AA95"/>
            <path d="M178.309 366.02L170.251 356.484C171.052 387.998 146.631 417.581 137.652 444.251C121.949 490.891 117.205 525.739 117.205 525.739L135.805 516.129C218.476 473.417 217.308 412.166 178.309 366.02V366.02Z" fill="#00CC76"/>
            <path d="M170.25 356.485L166.56 360.391C157.467 370.015 147.89 379.23 137.956 388.109L137.956 388.109C132.031 393.405 125.979 398.582 119.826 403.654C93.3714 425.465 83.4461 460.398 97.932 488.435L117.205 525.739C117.205 525.739 172.454 443.11 170.25 356.485V356.485Z" fill="#A5E887"/>
        </g>
        <g clip-path="url(#clip3)">
            <path d="M410.005 349.947L397 512.043H337.915C335.656 512.066 333.731 510.36 333.415 508.054L312.175 349.947H410.005Z" fill="#A56A43"/>
            <path d="M509.5 410.009L487 512.043H388C413.56 323.882 408.34 357.786 415 326.526L442 329.912L442.36 328.938L509.5 410.009Z" fill="#805333"/>
            <path d="M365.5 442.474V512.043H356.5V442.474C356.5 439.913 358.515 437.836 361 437.836C363.485 437.836 365.5 439.913 365.5 442.474Z" fill="#805333"/>
            <path d="M361 428.56C358.515 428.56 356.5 426.484 356.5 423.922V419.285C356.5 416.723 358.515 414.647 361 414.647C363.485 414.647 365.5 416.723 365.5 419.285V423.922C365.5 426.484 363.485 428.56 361 428.56Z" fill="#805333"/>
            <path d="M420.355 335.106C407.35 353.658 413.605 344.753 392.5 374.575C390.942 376.441 388.679 377.523 386.29 377.543H335.71C333.321 377.523 331.058 376.441 329.5 374.575L301.645 335.106C328.645 256.632 326.575 262.383 327.115 261.595C400.105 261.595 394.615 261.317 395.245 262.105L420.355 335.106Z" fill="#CB8252"/>
            <path d="M327.566 261.594L291.566 363.629L271.541 305.794C270.137 301.612 271.795 296.99 275.501 294.756L327.566 261.594Z" fill="#CF976A"/>
            <path d="M450.46 305.794L430.435 363.629C391.375 252.921 397.585 270.453 394.435 261.594L446.725 294.755C450.346 297.062 451.904 301.667 450.46 305.794Z" fill="#CF976A"/>
            <path d="M370 347.536L364.42 356.812C363.65 358.099 362.287 358.882 360.82 358.882C359.353 358.882 357.99 358.099 357.22 356.812L351.64 347.536C350.758 346.083 350.725 344.248 351.554 342.763C352.383 341.278 353.938 340.384 355.6 340.44H366.4C367.997 340.518 369.434 341.463 370.175 342.923C370.916 344.384 370.849 346.139 370 347.536Z" fill="#35495E"/>
            <path d="M532 414.647L505 368.267L487 512.043L532 414.647Z" fill="#A56A43"/>
        </g>
        <g clip-path="url(#clip4)">
            <path d="M385.132 122.815L423 115.797L409.212 105.727L423 95.931L386.31 88.6207L356.476 96.6803L332.241 79.4828L311 95.931L332.241 94.1034C332.241 105.617 331.855 97.7586 334.172 130.655L353.483 136.138L392.103 174.517L376.655 139.793L379.05 127.128L385.132 122.815Z" fill="#E64C3C"/>
            <path d="M332.241 79.4828V94.1034L311 95.931L332.241 79.4828Z" fill="#F0C419"/>
            <path d="M356.476 96.6803L332.241 103.241V79.4828L356.476 96.6803Z" fill="#E64C3C"/>
            <path d="M386.31 88.6207L376.655 139.793L372.793 130.655L353.483 136.138L332.241 103.241L386.31 88.6207Z" fill="#C03A2B"/>
            <path d="M423 95.931L379.05 127.128L386.31 88.6207L423 95.931Z" fill="#E64C3C"/>
            <path d="M423 115.797L385.132 122.815L409.212 105.727L423 115.797Z" fill="#C03A2B"/>
            <path d="M392.103 174.517L353.483 136.138L372.793 130.655L392.103 174.517Z" fill="#E64C3C"/>
            <path d="M353.483 136.138L334.172 130.655L332.241 103.241L353.483 136.138Z" fill="#E64C3C"/>
        </g>
        <g clip-path="url(#clip5)">
            <path d="M484.551 76.7484L540 65.4271L519.811 49.1821L540 33.3793L486.276 21.5862L442.59 34.5881L407.103 6.84482L376 33.3793L407.103 30.431C407.103 49.0052 406.538 36.3276 409.931 89.3965L438.207 98.2414L494.759 160.155L472.138 104.138L475.644 83.7064L484.551 76.7484Z" fill="#E64C3C"/>
            <path d="M407.103 6.84482V30.431L376 33.3793L407.103 6.84482Z" fill="#F0C419"/>
            <path d="M442.59 34.5881L407.103 45.1724V6.84482L442.59 34.5881Z" fill="#E64C3C"/>
            <path d="M486.276 21.5862L472.138 104.138L466.483 89.3966L438.207 98.2414L407.103 45.1724L486.276 21.5862Z" fill="#C03A2B"/>
            <path d="M540 33.3793L475.644 83.7064L486.276 21.5862L540 33.3793Z" fill="#E64C3C"/>
            <path d="M540 65.4271L484.551 76.7484L519.811 49.1821L540 65.4271Z" fill="#C03A2B"/>
            <path d="M494.759 160.155L438.207 98.2413L466.483 89.3965L494.759 160.155Z" fill="#E64C3C"/>
            <path d="M438.207 98.2413L409.931 89.3965L407.103 45.1724L438.207 98.2413Z" fill="#E64C3C"/>
        </g>
        <g clip-path="url(#clip6)">
            <path d="M312.614 159.381L340 154.151L330.029 146.646L340 139.345L313.466 133.897L291.889 139.903L274.362 127.086L259 139.345L274.362 137.983C274.362 146.564 274.083 140.707 275.759 165.224L289.724 169.31L317.655 197.914L306.483 172.034L308.214 162.595L312.614 159.381Z" fill="#E64C3C"/>
            <path d="M274.362 127.086V137.983L259 139.345L274.362 127.086Z" fill="#F0C419"/>
            <path d="M291.889 139.903L274.362 144.793V127.086L291.889 139.903Z" fill="#E64C3C"/>
            <path d="M313.465 133.897L306.483 172.034L303.69 165.224L289.724 169.31L274.362 144.793L313.465 133.897Z" fill="#C03A2B"/>
            <path d="M340 139.345L308.214 162.595L313.466 133.897L340 139.345Z" fill="#E64C3C"/>
            <path d="M340 154.151L312.614 159.381L330.029 146.646L340 154.151Z" fill="#C03A2B"/>
            <path d="M317.655 197.914L289.724 169.31L303.69 165.224L317.655 197.914Z" fill="#E64C3C"/>
            <path d="M289.724 169.31L275.759 165.224L274.362 144.793L289.724 169.31Z" fill="#E64C3C"/>
        </g>
    </g>
    <defs>
        <clipPath id="clip0">
            <rect width="500" height="500" fill="white"/>
        </clipPath>
        <clipPath id="clip1">
            <rect width="184" height="161" fill="white" transform="translate(127 348)"/>
        </clipPath>
        <clipPath id="clip2">
            <rect width="184" height="161" fill="white" transform="translate(7 401.458) rotate(-27.3234)"/>
        </clipPath>
        <clipPath id="clip3">
            <rect width="261" height="269" fill="white" transform="translate(271 250)"/>
        </clipPath>
        <clipPath id="clip4">
            <rect width="112" height="106" fill="white" transform="translate(311 74)"/>
        </clipPath>
        <clipPath id="clip5">
            <rect width="164" height="171" fill="white" transform="translate(376 -2)"/>
        </clipPath>
        <clipPath id="clip6">
            <rect width="81" height="79" fill="white" transform="translate(259 123)"/>
        </clipPath>
    </defs>
</svg>